<svg width="17" height="20" viewBox="0 0 17 20" fill="none" xmlns="http://www.w3.org/2000/svg">
<path d="M15.6564 1.65C15.5402 1.55602 15.4044 1.48928 15.2591 1.45467C15.1137 1.42006 14.9624 1.41846 14.8164 1.45C13.7478 1.67395 12.6447 1.6768 11.575 1.45839C10.5053 1.23997 9.49162 0.804917 8.59637 0.180003C8.42898 0.063876 8.23011 0.00164795 8.02637 0.00164795C7.82264 0.00164795 7.62377 0.063876 7.45637 0.180003C6.56113 0.804917 5.54745 1.23997 4.47774 1.45839C3.40803 1.6768 2.30494 1.67395 1.23637 1.45C1.09031 1.41846 0.939038 1.42006 0.793674 1.45467C0.648309 1.48928 0.512549 1.55602 0.396373 1.65C0.280352 1.74412 0.186894 1.86304 0.122865 1.99802C0.0588366 2.133 0.025865 2.28061 0.026373 2.43V9.88C0.0254839 11.3138 0.367146 12.727 1.02291 14.002C1.67867 15.277 2.62955 16.3768 3.79637 17.21L7.44637 19.81C7.61573 19.9306 7.81847 19.9954 8.02637 19.9954C8.23428 19.9954 8.43701 19.9306 8.60637 19.81L12.2564 17.21C13.4232 16.3768 14.3741 15.277 15.0298 14.002C15.6856 12.727 16.0273 11.3138 16.0264 9.88V2.43C16.0269 2.28061 15.9939 2.133 15.9299 1.99802C15.8659 1.86304 15.7724 1.74412 15.6564 1.65ZM14.0264 9.88C14.0271 10.9948 13.7617 12.0936 13.252 13.085C12.7424 14.0765 12.0033 14.9319 11.0964 15.58L8.02637 17.77L4.95637 15.58C4.04941 14.9319 3.31036 14.0765 2.80072 13.085C2.29109 12.0936 2.02561 10.9948 2.02637 9.88V3.58C4.1228 3.75944 6.22241 3.27303 8.02637 2.19C9.83033 3.27303 11.9299 3.75944 14.0264 3.58V9.88ZM9.56637 7.59L6.87637 10.29L5.98637 9.39C5.79807 9.2017 5.54267 9.09591 5.27637 9.09591C5.01007 9.09591 4.75468 9.2017 4.56637 9.39C4.37807 9.57831 4.27228 9.8337 4.27228 10.1C4.27228 10.3663 4.37807 10.6217 4.56637 10.81L6.16637 12.41C6.25934 12.5037 6.36994 12.5781 6.4918 12.6289C6.61366 12.6797 6.74436 12.7058 6.87637 12.7058C7.00839 12.7058 7.13909 12.6797 7.26095 12.6289C7.38281 12.5781 7.49341 12.5037 7.58637 12.41L11.0264 9C11.2147 8.8117 11.3205 8.5563 11.3205 8.29C11.3205 8.0237 11.2147 7.76831 11.0264 7.58C10.8381 7.3917 10.5827 7.28591 10.3164 7.28591C10.0501 7.28591 9.79468 7.3917 9.60637 7.58L9.56637 7.59Z" fill="#DE7115"/>
</svg>
